# xmcd
#
# Track frame offsets:
#	150
#	18981
#	39230
#	57291
#	76743
#	98437
#	119217
#	141488
#	161451
#	176709
#	202746
#	225186
#	242385
#	255871
#
# Disc length: 4016 seconds
#
# Revision: 0
# Processed by: cddbd v1.5.1PL0 Copyright (c) Steve Scherf et al.
# Submitted via: dBpowerAMP V4.0
#
DISCID=9e0fae0e
DTITLE=Heybale - ContinentaLive
DYEAR=1900
DGENRE=
TTITLE0=Honky-Tonk Revisited
TTITLE1=Sittin' And Thinkin'
TTITLE2=Apt. #9
TTITLE3=I'll Sail My Ship Alone
TTITLE4=Good Deal Lucille
TTITLE5=Remember Me
TTITLE6=Sally Goodin'
TTITLE7=Farewell Party
TTITLE8=Who Will Buy The Wine
TTITLE9=King Of The Road
TTITLE10=C'est La Vie
TTITLE11=Walk Through This World With Me
TTITLE12=Motel Time Again
TTITLE13=Truck Drivin' Man
EXTD=One of the greatest live Austin, Texas bands you'll ever hear.
EXTT0=
EXTT1=
EXTT2=
EXTT3=
EXTT4=
EXTT5=
EXTT6=
EXTT7=
EXTT8=
EXTT9=
EXTT10=
EXTT11=
EXTT12=
EXTT13=
PLAYORDER=
